<?xml version="1.0" standalone="no"?><!DOCTYPE svg PUBLIC "-//W3C//DTD SVG 1.1//EN" "http://www.w3.org/Graphics/SVG/1.1/DTD/svg11.dtd"><svg t="1569321325572" class="icon" viewBox="0 0 1024 1024" version="1.1" xmlns="http://www.w3.org/2000/svg" p-id="4098" xmlns:xlink="http://www.w3.org/1999/xlink" width="64" height="64"><defs><style type="text/css"></style></defs><path d="M512 0C228.950943 0 0 228.950943 0 512c0 283.049057 228.950943 512 512 512 283.049057 0 512-228.950943 512-512C1024 228.950943 795.049057 0 512 0zM809.539623 625.026415l0 3.864151 0 3.864151L808.573585 637.584906l-0.966038 8.69434-1.932075 7.728302-1.932075 6.762264-0.966038 2.898113L801.811321 666.566038l-0.966038 1.932075-1.932075 2.898113-1.932075 1.932075L795.049057 676.226415l-1.932075 1.932075-1.932075 1.932075-1.932075 0.966038-1.932075 0.966038-1.932075 0.966038-0.966038 0-0.966038 0-1.932075-0.966038-2.898113-1.932075-0.966038-0.966038-1.932075-0.966038L773.796226 676.226415 772.830189 675.260377l-2.898113-2.898113-2.898113-3.864151-2.898113-3.864151-2.898113-3.864151-2.898113-3.864151-3.864151-6.762264-3.864151-7.728302 0 0-0.966038 0-1.932075 0.966038-0.966038 1.932075-1.932075 2.898113L743.849057 654.007547l-3.864151 10.626415L735.154717 676.226415l-3.864151 5.796226-3.864151 6.762264-4.830189 7.728302-4.830189 6.762264L714.867925 707.139623l-2.898113 3.864151-6.762264 6.762264 0.966038 0.966038 0.966038 0.966038 3.864151 1.932075 15.456604 6.762264 6.762264 3.864151 5.796226 3.864151 5.796226 4.830189 5.796226 4.830189 2.898113 1.932075 1.932075 2.898113 1.932075 2.898113 1.932075 2.898113 0.966038 2.898113 0.966038 2.898113 0 2.898113 0.966038 2.898113-0.966038 1.932075 0 1.932075 0 1.932075-0.966038 1.932075 0 1.932075-0.966038 1.932075L754.475472 782.490566l-2.898113 2.898113-1.932075 1.932075-1.932075 1.932075L743.849057 792.150943l-4.830189 2.898113L734.188679 796.981132l-5.796226 2.898113L722.596226 801.811321l-2.898113 0.966038-2.898113 0.966038-6.762264 1.932075-6.762264 1.932075L695.54717 808.573585l-7.728302 0.966038-7.728302 0L671.396226 811.471698l-8.69434 0-8.69434 0-8.69434 0-9.660377-0.966038-8.69434-0.966038-9.660377-0.966038-9.660377-0.966038-9.660377-0.966038-9.660377-1.932075-9.660377-1.932075-8.69434-2.898113-9.660377-2.898113-9.660377-2.898113L547.743396 792.150943l-3.864151-1.932075L540.981132 789.25283l-2.898113-0.966038-3.864151 0-3.864151 0L521.660377 788.286792l-4.830189 0-5.796226-0.966038-3.864151 2.898113L502.339623 793.116981l-6.762264 2.898113-7.728302 3.864151L483.018868 802.777358l-4.830189 1.932075-10.626415 3.864151-5.796226 0.966038-5.796226 1.932075-8.69434 1.932075-4.830189 0-5.796226 0-5.796226 0.966038-6.762264 0-6.762264 0-6.762264 0-14.490566 0-15.456604 0-15.456604-1.932075-7.728302-0.966038L350.671698 811.471698l-6.762264-0.966038-6.762264-0.966038-6.762264-1.932075-6.762264-1.932075-5.796226-2.898113-5.796226-1.932075-4.830189-2.898113-4.830189-2.898113L296.573585 792.150943l-1.932075-1.932075-1.932075-1.932075-1.932075-1.932075-0.966038-1.932075-0.966038-1.932075-0.966038-1.932075-0.966038-3.864151-0.966038-1.932075-0.966038-2.898113 0-1.932075 0.966038-2.898113 0-2.898113 0.966038-2.898113 0-1.932075 0-3.864151 0-2.898113 0.966038-2.898113 0.966038-2.898113 1.932075-3.864151 0.966038-0.966038 0.966038-1.932075 2.898113-3.864151 1.932075-1.932075 1.932075-0.966038 1.932075-1.932075 2.898113-0.966038 2.898113-1.932075 2.898113-1.932075 3.864151-0.966038 3.864151-0.966038 3.864151-0.966038 3.864151-0.966038 4.830189-0.966038 4.830189 0 0.966038 0 0 0 0.966038-0.966038 0-0.966038L338.113208 721.630189l-2.898113-0.966038L328.45283 714.867925l-4.830189-3.864151L318.792453 706.173585l-4.830189-4.830189-5.796226-6.762264-6.762264-7.728302L299.471698 682.988679l-2.898113-3.864151-2.898113-4.830189-2.898113-4.830189-2.898113-4.830189-1.932075-5.796226-2.898113-5.796226L280.150943 646.279245l-1.932075-5.796226-1.932075-7.728302-0.966038 0-0.966038 0 0-0.966038-0.966038 0-0.966038 0.966038-0.966038 0-0.966038 0.966038 0 1.932075L271.456604 637.584906 270.490566 639.516981l-2.898113 5.796226-1.932075 2.898113-2.898113 2.898113L260.830189 654.973585l-2.898113 3.864151-2.898113 3.864151L251.169811 665.6l-3.864151 2.898113-3.864151 2.898113-3.864151 2.898113-3.864151 1.932075L230.883019 676.226415l-4.830189 0 0 0-0.966038 0-0.966038 0-0.966038-1.932075L222.188679 673.328302l-1.932075-3.864151L219.290566 666.566038l-0.966038-2.898113-0.966038-3.864151L216.392453 656.90566l-1.932075-7.728302-0.966038-4.830189 0-4.830189 0-10.626415 0.966038-11.592453 0.966038-5.796226 0.966038-5.796226 0.966038-6.762264 1.932075-5.796226 1.932075-6.762264 1.932075-6.762264 2.898113-6.762264 2.898113-6.762264L231.849057 560.301887l2.898113-6.762264 3.864151-6.762264 4.830189-7.728302 4.830189-6.762264 4.830189-7.728302 3.864151-4.830189 5.796226-5.796226 5.796226-5.796226 2.898113-2.898113 2.898113-2.898113 4.830189-3.864151 4.830189-3.864151 7.728302-6.762264 5.796226-3.864151 1.932075-1.932075-0.966038-3.864151L297.539623 473.358491l-0.966038-2.898113 0-2.898113L296.573585 463.698113l0-3.864151 0.966038-3.864151 0.966038-3.864151 1.932075-4.830189 1.932075-4.830189 2.898113-4.830189 3.864151-4.830189 0-3.864151 0-3.864151 0.966038-4.830189 1.932075-4.830189 1.932075-5.796226 0.966038-2.898113 0.966038-2.898113 1.932075-2.898113 1.932075-1.932075L319.758491 396.075472l0-3.864151L319.758491 386.415094l0.966038-6.762264 0.966038-7.728302 1.932075-9.660377 2.898113-9.660377 1.932075-5.796226 1.932075-5.796226 1.932075-5.796226 2.898113-5.796226 2.898113-6.762264 2.898113-5.796226 3.864151-6.762264 3.864151-6.762264 1.932075-3.864151 1.932075-2.898113 4.830189-6.762264 4.830189-6.762264 5.796226-6.762264 5.796226-6.762264 6.762264-6.762264 6.762264-6.762264 7.728302-7.728302 4.830189-4.830189 5.796226-4.830189 5.796226-3.864151 6.762264-3.864151 6.762264-3.864151 7.728302-2.898113 7.728302-3.864151 7.728302-2.898113 7.728302-2.898113 8.69434-2.898113 8.69434-1.932075 8.69434-1.932075 8.69434-0.966038 8.69434-0.966038 8.69434-0.966038 9.660377-0.966038 8.69434 0 8.69434 0 9.660377 0 8.69434 0.966038 9.660377 0.966038 9.660377 0.966038 8.69434 1.932075 9.660377 1.932075 8.69434 1.932075 9.660377 2.898113 8.69434 2.898113 8.69434 3.864151 8.69434 3.864151 7.728302 3.864151 7.728302 4.830189 7.728302 4.830189 6.762264 4.830189L666.566038 251.169811l2.898113 1.932075 5.796226 4.830189 4.830189 4.830189 4.830189 4.830189 4.830189 5.796226L695.54717 280.150943l4.830189 5.796226 3.864151 5.796226 3.864151 5.796226 3.864151 6.762264 2.898113 5.796226 4.830189 11.592453 2.898113 5.796226 1.932075 5.796226 1.932075 5.796226 1.932075 5.796226 0.966038 4.830189 1.932075 5.796226 2.898113 10.626415 1.932075 8.69434 0.966038 8.69434 0.966038 6.762264 1.932075 10.626415 0 1.932075 0.966038 1.932075 3.864151 5.796226 1.932075 3.864151 1.932075 3.864151 2.898113 3.864151 1.932075 4.830189 0.966038 4.830189 1.932075 5.796226 0.966038 5.796226 0.966038 2.898113 0 3.864151 0 2.898113 0 2.898113 0 3.864151-0.966038 3.864151-1.932075 6.762264L753.509434 476.256604l-0.966038 3.864151 0 0.966038 0.966038 0.966038 1.932075 2.898113 7.728302 11.592453 6.762264 8.69434 2.898113 5.796226 3.864151 6.762264 3.864151 6.762264 3.864151 7.728302 3.864151 8.69434 4.830189 9.660377 2.898113 5.796226 2.898113 5.796226 1.932075 5.796226 1.932075 5.796226 1.932075 5.796226 1.932075 5.796226 1.932075 10.626415 1.932075 10.626415 0.966038 9.660377L811.471698 625.026415z" p-id="4099" fill="#8a8a8a"></path></svg>